<svg xmlns="http://www.w3.org/2000/svg" viewBox="0 0 64 64" role="img" aria-label="Mail.ru Auth">
  <rect x="2" y="2" width="60" height="60" rx="10" fill="#fff"/>
  <rect x="2.5" y="2.5" width="59" height="59" rx="9.5" fill="none" stroke="#e5e7eb"/>
  <circle cx="32" cy="32" r="18" fill="#168de2"/>
  <path fill="#fff" d="M32 43.5c-6.6 0-11.7-5-11.7-11.6 0-6.7 5.1-11.6 11.8-11.6 6.5 0 11.6 4.7 11.6 10.8v1.4c0 3.1-1.8 5.2-4.4 5.2-1.5 0-2.8-.6-3.5-1.8-1.1 1.2-2.6 1.8-4.4 1.8-3.4 0-5.8-2.5-5.8-5.9s2.4-5.9 5.8-5.9c1.5 0 2.8.5 3.7 1.5v-1.1h3.3v7.2c0 1 .5 1.5 1.2 1.5.9 0 1.5-.9 1.5-2.5v-1.4c0-4.7-3.8-8.2-9-8.2-5.3 0-9.2 3.9-9.2 9s3.9 9 9.2 9c2 0 3.9-.5 5.5-1.6l1.3 2.3c-1.9 1.3-4.3 1.9-6.9 1.9Zm-.1-8.8c1.8 0 3.1-1.2 3.1-2.9s-1.3-2.9-3.1-2.9-3 1.2-3 2.9 1.2 2.9 3 2.9Z"/>
</svg>
